Coordinates
version=1
nRows=19
nColumns=34
inDegrees=yes

Units are S.I. units (second, meters, Newtons, ...)
If the header above contains a line with 'inDegrees', this indicates whether rotational values are in degrees (yes) or radians (no).

endheader
time	pelvis_tilt	pelvis_list	pelvis_rotation	pelvis_tx	pelvis_ty	pelvis_tz	hip_flexion_r	hip_adduction_r	hip_rotation_r	knee_angle_r	ankle_angle_r	subtalar_angle_r	mtp_angle_r	hip_flexion_l	hip_adduction_l	hip_rotation_l	knee_angle_l	ankle_angle_l	subtalar_angle_l	mtp_angle_l	lumbar_extension	lumbar_bending	lumbar_rotation	arm_flex_r	arm_add_r	arm_rot_r	elbow_flex_r	pro_sup_r	arm_flex_l	arm_add_l	arm_rot_l	elbow_flex_l	pro_sup_l
      3.75000000	      7.85081870	      4.28704312	     -3.85602417	      0.06438665	      0.81627682	      0.10021965	     24.34389175	      4.22006366	     -6.18740428	     67.07482541	     36.60379789	      3.64547610	      0.00000000	     43.19824325	    -12.11867659	     -4.78185337	     10.36674437	     -1.52545758	     -3.46098139	      0.00000000	    -26.80527377	      4.40364752	      0.00979183	     87.61289343	     -4.12906208	     71.67862581	    129.70256371	     95.35124026	     82.69422458	     -4.73710820	     76.47398638	    123.30028317	     87.35026883
      3.76666670	      7.91420439	      4.57020080	     -3.79210157	      0.06424478	      0.81756656	      0.09942222	     24.21685416	      3.61168872	     -6.22366946	     66.62401599	     37.15536237	      4.70848917	      0.00000000	     43.27495496	    -11.80814152	     -5.17205658	     10.12478222	     -1.87087046	     -3.56265273	      0.00000000	    -26.68878853	      4.32100994	      0.15809132	     87.37464850	     -4.59416671	     71.24108511	    129.33139524	     95.20658644	     82.48120976	     -4.18233887	     75.76617447	    123.61863057	     87.12777955
      3.78333330	      7.60738831	      5.01265169	     -3.55636948	      0.06346895	      0.81371138	      0.09881691	     24.71064726	      2.80482338	     -6.58322272	     66.91688223	     38.86112543	      5.95446367	      0.00000000	     44.24226101	    -11.38871492	     -5.19680366	     10.36677525	     -1.79571259	     -4.21589666	      0.00000000	    -26.06084687	      4.15278695	     -0.00023390	     87.55407060	     -4.67877830	     70.58684660	    129.24279535	     94.96998318	     82.76404056	     -3.82208378	     75.16198787	    123.44784099	     86.82662313
      3.80000000	      7.57067155	      5.03973393	     -3.56748400	      0.06113393	      0.82419649	      0.10056767	     24.56031335	      2.70625721	     -6.61468397	     66.29060904	     39.15454750	      5.91325504	      0.00000000	     44.44560497	    -11.39494566	     -5.67720487	     10.31784290	     -2.47283694	     -4.32325813	      0.00000000	    -26.04891234	      4.42200642	      0.17245055	     87.31780511	     -4.64647036	     70.65700007	    129.25758181	     94.91757858	     82.83579816	     -3.99429213	     75.18892942	    123.17153126	     86.75047576
      3.81666670	      7.64373203	      5.09835383	     -3.68607393	      0.06277462	      0.82479370	      0.09944456	     24.20870305	      2.44552093	     -6.69186620	     65.82430039	     39.25953949	      6.35749654	      0.00000000	     44.52710755	    -11.40189107	     -6.16361357	     10.25506156	     -2.77112903	     -4.53098141	      0.00000000	    -25.85486524	      4.57519170	      0.18829097	     87.10065061	     -4.62060887	     70.71726737	    129.12974341	     94.86889331	     83.11257726	     -3.90970256	     75.05716179	    123.02537478	     86.67168796
      3.83333330	      7.80702839	      5.53111180	     -4.01180039	      0.06441074	      0.82863422	      0.09836909	     23.57800451	      1.82852420	     -6.48259604	     65.14455059	     39.24007319	      7.39010422	      0.00000000	     44.33002506	    -11.15811587	     -6.69377805	      9.98163264	     -3.24567055	     -5.02832887	      0.00000000	    -25.77244386	      4.16282407	     -0.20193340	     86.77655316	     -4.30186262	     70.73167804	    129.07732092	     94.72918787	     83.23129166	     -4.27943845	     74.87649180	    122.08427286	     86.40793943
      3.85000000	      7.82292741	      5.63993273	     -4.07267238	      0.06240540	      0.83571897	      0.09947388	     23.25190098	      1.61234696	     -6.54329766	     63.78816129	     38.59850603	      7.77894821	      0.00000000	     44.37259752	    -11.01677589	     -7.28402874	      9.83732811	     -3.55254688	     -5.21127704	      0.00000000	    -25.61910048	      4.27333962	      0.04213758	     86.48523330	     -4.70696178	     70.76836810	    128.77694012	     94.68376824	     82.78755947	     -4.08089782	     75.10031644	    122.39325611	     86.33736954
      3.86666670	      7.97079822	      5.73074956	     -4.32085981	      0.06162086	      0.83825961	      0.09910029	     22.97306321	      1.43191065	     -6.43175116	     62.66797576	     38.56881515	      8.00982805	      0.00000000	     44.41904824	    -11.03305772	     -7.65589238	      9.84172825	     -3.80176865	     -5.29544151	      0.00000000	    -25.66076421	      4.39715474	      0.38598803	     86.15799932	     -5.21325280	     70.82824902	    128.30645773	     94.62035192	     82.72966031	     -4.24647413	     75.31226785	    122.45691893	     86.25541891
      3.88333330	      8.01366541	      5.84575503	     -4.54221665	      0.06256454	      0.84335981	      0.09980866	     22.58096157	      1.29628838	     -6.23655359	     61.38190671	     38.75696025	      8.12390284	      0.00000000	     44.38666161	    -11.06763280	     -7.92819104	      9.66019496	     -4.16771523	     -5.33772246	      0.00000000	    -25.65742465	      4.48694221	      0.70249263	     85.87632143	     -5.60415979	     70.90463559	    128.16673602	     94.55153525	     82.53931889	     -4.39463247	     75.66125997	    122.69216773	     86.18819746
      3.90000000	      8.33198106	      6.08444123	     -4.84016879	      0.06152586	      0.84911030	      0.10052083	     21.43676668	      1.05374488	     -5.95931964	     60.08706270	     37.31884397	      8.71538960	      0.00000000	     44.04035270	    -11.03777175	     -8.26379212	      9.60421360	     -4.99568784	     -5.12878879	      0.00000000	    -25.76222489	      4.42455355	      1.40169762	     85.39097587	     -6.29094196	     70.81532555	    127.79493603	     94.31663761	     82.31408773	     -4.50377394	     76.61898268	    123.01582700	     86.02825421
      3.91666670	      8.26564076	      6.45463845	     -4.99919192	      0.06215616	      0.85306260	      0.09896050	     20.93136099	      0.60713648	     -5.93168662	     59.13100796	     35.79497816	      9.27728941	      0.00000000	     44.37190218	    -10.79896412	     -8.67827055	      9.83539507	     -5.31736219	     -5.29068102	      0.00000000	    -25.75232113	      4.34423563	      1.49391983	     85.39140982	     -6.73016638	     70.65922194	    127.70295585	     94.23187094	     82.29755019	     -5.19795624	     76.89929252	    122.54986465	     85.96720491
      3.93333330	      8.31370007	      7.07747806	     -5.10308169	      0.06228385	      0.85619045	      0.09849301	     20.46712319	     -0.06539270	     -5.72820773	     58.53893739	     34.31226058	      9.36773927	      0.00000000	     44.49309818	    -10.32396047	     -9.20115735	      9.78068037	     -6.55601087	     -6.07126624	      0.00000000	    -25.66466246	      3.92293369	      1.51119084	     85.20315792	     -7.04842016	     69.97774976	    127.03815586	     93.85936733	     82.50350789	     -5.10829579	     77.48729477	    122.07216723	     85.71634184
      3.95000000	      8.20155520	      7.55648689	     -4.87326932	      0.06723777	      0.85738020	      0.09748598	     19.75570583	     -0.91575513	     -6.03576221	     58.05244850	     32.42619165	      9.64340688	      0.00000000	     44.97761850	     -9.90200899	    -10.28987406	     10.21216234	     -7.37754427	     -7.03043740	      0.00000000	    -25.14029240	      3.83372509	      1.32263923	     85.25837759	     -7.34911456	     69.56832656	    126.89242828	     93.69897749	     82.41260298	     -4.71013780	     77.69543178	    122.42994594	     85.63264468
      3.96666670	      7.99933777	      8.10086230	     -5.06297356	      0.06623236	      0.86230063	      0.09541097	     19.68004632	     -1.56141852	     -5.62404836	     57.46983696	     30.87162738	      9.39049164	      0.00000000	     45.23531303	     -9.48257488	    -11.48103599	     10.13006017	     -9.66354991	     -9.97876376	      0.00000000	    -24.33862675	      3.45784400	      1.62177349	     84.63285223	     -7.86994728	     68.77614968	    126.75564479	     93.29276564	     81.92204701	     -4.43327621	     78.33809124	    123.12172060	     85.45992162
      3.98333330	      7.81645677	      8.66683449	     -4.91882082	      0.06850222	      0.86605788	      0.09472050	     19.15945255	     -2.46445995	     -5.94296921	     56.36276877	     30.20854002	     10.11570402	      0.00000000	     45.48372581	     -8.89841050	    -12.87694286	     10.01755002	    -12.22487993	    -13.46782820	      0.00000000	    -23.45878097	      3.21157896	      1.53026126	     83.84803838	     -8.30078853	     68.15766779	    126.96556818	     92.85968349	     81.46242397	     -4.21453110	     78.30096904	    122.87366782	     85.20791344
      4.00000000	      7.71071650	      8.55769822	     -5.06066674	      0.06434539	      0.87379548	      0.09623695	     18.90863294	     -2.24200592	     -5.92190077	     54.97532214	     29.84945806	      9.88401047	      0.00000000	     45.65021384	     -9.10881667	    -14.78376816	      9.88566457	    -13.55777832	    -14.72128825	      0.00000000	    -23.32241641	      3.66733104	      1.80032821	     83.79996617	     -8.42865057	     68.05277294	    127.11498573	     92.68721833	     81.49590448	     -3.86442276	     78.51422412	    122.96037706	     85.11105312
      4.01666670	      8.13236203	      8.65999617	     -4.84381071	      0.06911840	      0.88149581	      0.09415746	     17.48935214	     -2.66390182	     -6.27516570	     53.25624662	     29.24296933	      9.14896366	      0.00000000	     44.94896237	     -8.69159825	    -16.19231932	      9.07029239	    -14.22561602	    -15.55060404	      0.00000000	    -23.44276526	      4.12730546	      1.91298273	     83.35970302	     -8.99147213	     67.92990612	    127.16780276	     92.35153987	     81.60533359	     -3.10310113	     78.58212130	    122.52529978	     84.91897558
      4.03333330	      8.12833103	      8.88464189	     -4.51819540	      0.06845856	      0.88304795	      0.09397522	     16.92556966	     -2.91168924	     -6.51734040	     51.91565159	     28.83008488	      9.43188816	      0.00000000	     45.12047234	     -8.25773590	    -16.79158057	      8.91783969	    -14.18121999	    -15.62457622	      0.00000000	    -22.94532455	      4.46229813	      2.04380095	     83.08505989	     -9.12672428	     67.91822958	    127.12371930	     92.30107108	     81.63389305	     -2.46522349	     78.63683223	    122.99952606	     84.90653010
      4.05000000	      8.06607871	      9.33558202	     -4.87726309	      0.06804066	      0.88962351	      0.09463017	     16.45185412	     -3.21430137	     -5.98656190	     50.53766866	     28.17207217	      9.91927876	      0.00000000	     45.02904748	     -7.93079298	    -15.52921799	      8.85399423	    -13.90787306	    -14.73332527	      0.00000000	    -22.64375108	      4.24583613	      2.11023199	     82.69949559	     -9.02981055	     67.96612379	    127.18305448	     92.25267127	     82.00210952	     -2.34998621	     78.59033945	    123.10387198	     84.88635070
